<svg height="512pt" viewBox="0 0 512 512" width="512pt" xmlns="http://www.w3.org/2000/svg"><path d="m392.691406 392.03125h30v104.96875h-30zm0 0" fill="#b77445"/><path d="m407.691406 392.03125h15v104.96875h-15zm0 0" fill="#a04010"/><path d="m512 302.71875c0 57.519531-46.789062 104.3125-104.308594 104.3125-57.519531 0-104.3125-46.792969-104.3125-104.3125s46.792969-104.308594 104.3125-104.308594c57.519532 0 104.308594 46.789063 104.308594 104.308594zm0 0" fill="#2f5995"/><path d="m512 302.71875c0 57.519531-46.789062 104.3125-104.308594 104.3125v-208.621094c57.519532 0 104.308594 46.789063 104.308594 104.308594zm0 0" fill="#183158"/><path d="m89.308594 392.03125h30v104.96875h-30zm0 0" fill="#b77445"/><path d="m104.308594 392.03125h15v104.96875h-15zm0 0" fill="#a04010"/><path d="m208.621094 302.71875c0 57.519531-46.792969 104.3125-104.3125 104.3125-57.519532 0-104.308594-46.792969-104.308594-104.3125s46.789062-104.308594 104.308594-104.308594c57.519531 0 104.3125 46.789063 104.3125 104.308594zm0 0" fill="#2f5995"/><path d="m208.621094 302.71875c0 57.519531-46.792969 104.3125-104.3125 104.3125v-208.621094c57.519531 0 104.3125 46.789063 104.3125 104.308594zm0 0" fill="#183158"/><path d="m447.101562 191.101562c0 105.378907-85.730468 191.097657-191.101562 191.097657s-191.101562-85.71875-191.101562-191.097657c0-105.371093 85.730468-191.101562 191.101562-191.101562s191.101562 85.730469 191.101562 191.101562zm0 0" fill="#60d64d"/><path d="m447.101562 191.101562c0 105.378907-85.730468 191.097657-191.101562 191.097657v-382.199219c105.371094 0 191.101562 85.730469 191.101562 191.101562zm0 0" fill="#00b563"/><path d="m364.550781 210.21875v22.710938c0 25.359374-20.640625 46-46 46h-15.550781v230.070312h-94v-248.21875h-16.328125c-25.371094 0-46-20.640625-46-46v-22.710938h30v22.710938c0 8.820312 7.167969 16 16 16h16.328125v-78.0625h94v96.210938h15.550781c8.820313 0 16-7.179688 16-16v-22.710938zm0 0" fill="#b77445"/><path d="m364.550781 210.21875v22.710938c0 25.359374-20.640625 46-46 46h-15.550781v230.070312h-47v-356.28125h47v96.210938h15.550781c8.820313 0 16-7.179688 16-16v-22.710938zm0 0" fill="#a04010"/><path d="m0 482h512v30h-512zm0 0" fill="#9ce78d"/><path d="m256 482h256v30h-256zm0 0" fill="#36cb8e"/></svg>