<svg id="Capa_1" enable-background="new 0 0 492.796 492.796" height="512" viewBox="0 0 492.796 492.796" width="512" xmlns="http://www.w3.org/2000/svg"><g><path d="m128.574 86.624c-1.3 0-2.579.089-3.837.244-1.801-23.19-21.174-41.45-44.826-41.45-23.656 0-43.032 18.266-44.827 41.462-1.287-.162-2.596-.255-3.927-.255-17.208-.001-31.157 13.948-31.157 31.156s13.949 31.157 31.157 31.157h97.417c17.208 0 31.157-13.95 31.157-31.157s-13.949-31.157-31.157-31.157z" fill="#e6e6e6"/><path d="m307.275 294.526-146.332-253.456-160.943 278.183v144.25h138.379z" fill="#86c983"/><path d="m160.943 41.07v399.858l146.332-146.402z" fill="#6fbf6b"/><path d="m301.123 109.068-169.744 354.435h339.489z" fill="#9dd39b"/><path d="m301.123 109.068v354.435h169.745z" fill="#86c983"/><path d="m322.244 265.222c4.395-4.395 11.52-4.395 15.915 0l.001.001c4.395 4.395 11.521 4.395 15.915 0l14.763-14.763-67.715-141.393-63.559 132.715 31.79 31.79c12.299 12.299 32.24 12.299 44.539 0z" fill="#fff5f5"/><path d="m313.893 273.573 8.351-8.351c4.395-4.395 11.52-4.395 15.915 0l.001.001c4.395 4.395 11.521 4.395 15.915 0l14.763-14.763-67.715-141.393v172.26c4.671-1.472 9.067-4.052 12.77-7.754z" fill="#ebe1dc"/><path d="m160.943 41.07-75.077 129.767 23.208 23.208c17.574 17.574 46.066 17.574 63.64 0l48.53-48.53z" fill="#fff5f5"/><path d="m172.714 194.045 48.53-48.53-60.301-104.445v161.442c4.246-2.114 8.232-4.928 11.771-8.467z" fill="#ebe1dc"/><path d="m461.639 318.125c-1.3 0-2.579.089-3.837.244-1.801-23.19-21.174-41.45-44.826-41.45-23.656 0-43.032 18.266-44.827 41.462-1.287-.162-2.596-.255-3.927-.255-17.208 0-31.157 13.95-31.157 31.157s13.949 31.157 31.157 31.157h97.417c17.208 0 31.157-13.95 31.157-31.157s-13.95-31.158-31.157-31.158z" fill="#e6e6e6"/><g fill="#ebe1dc"><path d="m361.257 29.293h30v30h-30z"/><path d="m421.257 89.293h30v30h-30z"/></g></g></svg>