<?xml version="1.0" encoding="iso-8859-1"?>
<!-- Generator: Adobe Illustrator 19.0.0, SVG Export Plug-In . SVG Version: 6.00 Build 0)  -->
<svg version="1.1" id="Layer_1" xmlns="http://www.w3.org/2000/svg" xmlns:xlink="http://www.w3.org/1999/xlink" x="0px" y="0px"
	 viewBox="0 0 512 512" style="enable-background:new 0 0 512 512;" xml:space="preserve">
<polyline style="fill:#85C8EB;" points="501.78,196.139 8.967,196.139 8.967,379.841 501.78,379.841 "/>
<polyline style="fill:#D3BD8C;" points="8.967,379.847 8.967,503.916 503.033,503.916 503.033,379.847 "/>
<g>
	<rect x="339.041" y="287.572" style="fill:#B7B3AC;" width="22.634" height="157.728"/>
	<path style="fill:#B7B3AC;" d="M361.672,167.919v-18.864c0-6.25-5.067-11.317-11.318-11.317c-6.249,0-11.316,5.067-11.316,11.317
		v18.864H361.672z"/>
</g>
<g>
	<path style="fill:#B8E5F4;" d="M486.14,8.084h-23.56h-11.857h-10.465h-11.857h-23.56c-9.328,0-16.893,7.564-16.893,16.893
		c0,2.477,0.548,4.823,1.506,6.942h-7.693h-39.728c-9.328,0-16.893,7.564-16.893,16.893c0,9.328,7.565,16.893,16.893,16.893h39.728
		h11.857h10.465h11.857h23.56c9.332,0,16.893-7.565,16.893-16.893c0-2.477-0.545-4.823-1.504-6.942h7.691h23.56
		c9.332,0,16.893-7.565,16.893-16.893C503.033,15.648,495.473,8.084,486.14,8.084z"/>
	<circle style="fill:#B8E5F4;" cx="279.477" cy="48.807" r="16.893"/>
</g>
<path style="fill:#FFA233;" d="M65.199,114.237c6.388,6.389,15.212,10.34,24.96,10.34c19.497,0,35.303-15.805,35.303-35.301
	c0-19.498-15.806-35.302-35.303-35.302c-19.495,0-35.301,15.804-35.301,35.302C54.858,99.024,58.81,107.85,65.199,114.237"/>
<polygon style="fill:#F25D4E;" points="364.296,167.919 336.417,167.919 198.071,287.566 502.643,287.566 "/>
<g style="opacity:0.1;">
	<polygon style="fill:#231F20;" points="364.296,167.919 336.417,167.919 198.071,287.566 227.721,287.566 365.182,168.686 	"/>
</g>
<g>
	<path style="fill:#231F20;" d="M90.159,132.662c-11.588,0-22.483-4.514-30.677-12.708s-12.708-19.088-12.708-30.677
		c0-23.923,19.462-43.386,43.385-43.386c23.924,0,43.387,19.464,43.387,43.386C133.547,113.201,114.083,132.662,90.159,132.662z
		 M90.159,62.059c-15.008,0-27.217,12.209-27.217,27.218c0,7.269,2.832,14.104,7.972,19.245c5.142,5.142,11.974,7.972,19.245,7.972
		c15.009,0,27.219-12.209,27.219-27.217C117.378,74.268,105.167,62.059,90.159,62.059z"/>
	<path style="fill:#231F20;" d="M171.353,97.361h-22.945c-4.466,0-8.084-3.618-8.084-8.084s3.618-8.084,8.084-8.084h22.945
		c4.466,0,8.084,3.618,8.084,8.084C179.437,93.742,175.818,97.361,171.353,97.361z"/>
	<path style="fill:#231F20;" d="M31.912,97.361H8.967c-4.466,0-8.084-3.618-8.084-8.084s3.618-8.084,8.084-8.084h22.945
		c4.466,0,8.084,3.618,8.084,8.084C39.996,93.742,36.378,97.361,31.912,97.361z"/>
	<path style="fill:#231F20;" d="M131.346,56.173c-2.068,0-4.138-0.789-5.717-2.367c-3.157-3.158-3.157-8.276,0-11.433l16.226-16.226
		c3.158-3.156,8.276-3.156,11.433,0c3.157,3.158,3.157,8.276,0,11.434l-16.226,16.226C135.484,55.384,133.414,56.173,131.346,56.173
		z"/>
	<path style="fill:#231F20;" d="M32.749,154.773c-2.068,0-4.138-0.789-5.716-2.367c-3.158-3.157-3.158-8.276-0.001-11.432
		l16.226-16.227c3.158-3.158,8.277-3.157,11.433-0.001c3.158,3.157,3.158,8.276,0.001,11.432l-16.226,16.227
		C36.887,153.983,34.817,154.773,32.749,154.773z"/>
	<path style="fill:#231F20;" d="M90.159,39.114L90.159,39.114c-4.466,0-8.084-3.62-8.084-8.085l0.002-22.945
		c0-4.465,3.62-8.083,8.084-8.083h0.001c4.465,0,8.083,3.62,8.083,8.085L98.244,31.03C98.244,35.495,94.623,39.114,90.159,39.114z"
		/>
	<path style="fill:#231F20;" d="M90.159,178.553c-4.466,0-8.084-3.618-8.084-8.084v-22.946c0-4.466,3.618-8.084,8.084-8.084
		c4.466,0,8.084,3.618,8.084,8.084v22.946C98.244,174.935,94.624,178.553,90.159,178.553z"/>
	<path style="fill:#231F20;" d="M48.974,56.174c-2.068,0-4.138-0.789-5.717-2.367L27.031,37.582c-3.157-3.158-3.157-8.276,0-11.433
		c3.158-3.156,8.276-3.156,11.433,0L54.69,42.374c3.157,3.158,3.157,8.276,0,11.433C53.111,55.385,51.043,56.174,48.974,56.174z"/>
	<path style="fill:#231F20;" d="M147.571,154.774c-2.068,0-4.138-0.789-5.717-2.367l-16.226-16.226
		c-3.157-3.158-3.157-8.276,0-11.433c3.158-3.156,8.276-3.156,11.433,0l16.226,16.226c3.157,3.158,3.157,8.276,0,11.433
		C151.709,153.985,149.64,154.774,147.571,154.774z"/>
	<path style="fill:#231F20;" d="M99.161,233.983H43.443c-4.466,0-8.084,3.618-8.084,8.084c0,4.466,3.618,8.084,8.084,8.084h55.717
		c4.466,0,8.084-3.618,8.084-8.084C107.245,237.601,103.627,233.983,99.161,233.983z"/>
	<path style="fill:#231F20;" d="M511.117,196.139c0-4.466-3.618-8.084-8.084-8.084H402.767c-0.839,0-1.647,0.128-2.408,0.364
		l-30.603-26.466v-12.899c0-10.698-8.704-19.401-19.402-19.401c-10.697,0-19.4,8.703-19.4,19.401v12.9l-30.539,26.412
		c-0.702-0.198-1.439-0.312-2.204-0.312H8.967c-4.466,0-8.084,3.618-8.084,8.084v183.702c0,0.001,0,0.002,0,0.003
		c0,0.001,0,0.002,0,0.003v124.068c0,4.466,3.618,8.084,8.084,8.084h494.065c4.466,0,8.084-3.618,8.084-8.084V379.847
		c0-0.001,0-0.002,0-0.003c0-0.001,0-0.002,0-0.003V196.139H511.117z M436.716,279.482l-61.683-91.59l105.904,91.59H436.716z
		 M353.588,437.214h-6.465V295.65h6.465V437.214z M219.777,279.482l105.263-91.036l-61.31,91.036H219.777z M342.27,191.807v87.676
		h-3.232h-55.816L342.27,191.807z M361.672,279.482h-3.234v-87.285l58.784,87.285H361.672z M471.74,250.151h23.209v20.071
		L471.74,250.151z M494.949,204.223v29.76h-37.567c-1.232,0-2.395,0.283-3.441,0.776l-35.309-30.537h76.316V204.223z
		 M347.123,149.055c0-1.782,1.45-3.233,3.232-3.233c1.783,0,3.234,1.451,3.234,3.233v10.78h-6.465V149.055z M17.051,495.832V387.926
		h296.971c4.466,0,8.084-3.618,8.084-8.084s-3.618-8.084-8.084-8.084H17.051v-75.676h157.562c4.466,0,8.084-3.618,8.084-8.084
		s-3.618-8.084-8.084-8.084H17.051v-75.69h265.03l-35.082,30.341c-0.927-0.371-1.937-0.58-2.998-0.58H122.517
		c-4.466,0-8.084,3.618-8.084,8.084c0,4.466,3.618,8.084,8.084,8.084h106.457l-36.191,31.3c-2.554,2.209-3.467,5.771-2.287,8.936
		c1.178,3.165,4.199,5.263,7.575,5.263h69.94c0.004,0,0.01,0.001,0.014,0.001c0.005,0,0.012-0.001,0.017-0.001h62.912v30.191H46.677
		c-4.466,0-8.084,3.618-8.084,8.084s3.618,8.084,8.084,8.084h284.277v95.204h-52.844c-4.466,0-8.084,3.618-8.084,8.084
		s3.618,8.084,8.084,8.084h60.928h22.634h60.93c4.466,0,8.084-3.618,8.084-8.084s-3.618-8.084-8.084-8.084h-52.846v-95.204h96.16
		c4.466,0,8.084-3.618,8.084-8.084s-3.618-8.084-8.084-8.084h-96.16v-30.191h62.647c0.005,0,0.012,0.001,0.017,0.001
		s0.01-0.001,0.014-0.001h62.512v76.106H384.803c-4.466,0-8.084,3.618-8.084,8.084s3.618,8.084,8.084,8.084h110.146v107.906H17.051z
		"/>
	<path style="fill:#231F20;" d="M439.5,73.788h-97.468c-13.772,0-24.977-11.205-24.977-24.977s11.205-24.977,24.977-24.977h37.857
		C380.488,10.59,391.451,0,404.841,0h81.299c13.772,0,24.977,11.205,24.977,24.977s-11.205,24.977-24.977,24.977h-21.688
		C463.853,63.198,452.889,73.788,439.5,73.788z M342.032,40.003c-4.857,0-8.809,3.952-8.809,8.809s3.952,8.809,8.809,8.809H439.5
		c4.857,0,8.809-3.952,8.809-8.809c0-1.243-0.264-2.459-0.786-3.613c-1.131-2.502-0.914-5.407,0.576-7.712
		c1.489-2.307,4.046-3.7,6.792-3.7h31.25c4.857,0,8.809-3.952,8.809-8.809s-3.952-8.809-8.809-8.809h-81.299
		c-4.857,0-8.809,3.952-8.809,8.809c0,1.24,0.265,2.455,0.789,3.614c1.131,2.502,0.914,5.407-0.576,7.712
		c-1.489,2.307-4.046,3.7-6.792,3.7h-47.422V40.003z"/>
	<path style="fill:#231F20;" d="M279.477,73.789c-13.772,0-24.977-11.205-24.977-24.977s11.205-24.977,24.977-24.977
		c13.772,0,24.977,11.205,24.977,24.977C304.454,62.586,293.25,73.789,279.477,73.789z M279.477,40.004
		c-4.857,0-8.809,3.952-8.809,8.809s3.952,8.809,8.809,8.809s8.809-3.952,8.809-8.809S284.334,40.004,279.477,40.004z"/>
</g>
<g style="opacity:0.1;">
	<rect x="17.045" y="190.065" style="fill:#231F20;" width="17.246" height="313.851"/>
</g>
<g>
</g>
<g>
</g>
<g>
</g>
<g>
</g>
<g>
</g>
<g>
</g>
<g>
</g>
<g>
</g>
<g>
</g>
<g>
</g>
<g>
</g>
<g>
</g>
<g>
</g>
<g>
</g>
<g>
</g>
</svg>
